<mxfile host="65bd71144e">
    <diagram id="NMhqBx2XcAsXlwE-jtwy" name="Page-1">
        <mxGraphModel dx="1322" dy="934" grid="1" gridSize="10" guides="1" tooltips="1" connect="1" arrows="1" fold="1" page="1" pageScale="1" pageWidth="850" pageHeight="1100" math="0" shadow="0">
            <root>
                <mxCell id="0"/>
                <mxCell id="1" parent="0"/>
                <mxCell id="12" value="" style="edgeStyle=none;html=1;fontColor=#000000;" edge="1" parent="1" source="3" target="6">
                    <mxGeometry relative="1" as="geometry"/>
                </mxCell>
                <mxCell id="3" value="Start" style="rounded=1;whiteSpace=wrap;html=1;arcSize=50;fillColor=#fad7ac;strokeColor=#b46504;fontColor=#000000;" vertex="1" parent="1">
                    <mxGeometry x="200" y="90" width="120" height="60" as="geometry"/>
                </mxCell>
                <mxCell id="5" value="End" style="rounded=1;whiteSpace=wrap;html=1;arcSize=50;fillColor=#fad7ac;strokeColor=#b46504;fontColor=#000000;" vertex="1" parent="1">
                    <mxGeometry x="200" y="740" width="120" height="60" as="geometry"/>
                </mxCell>
                <mxCell id="13" value="" style="edgeStyle=none;html=1;fontColor=#000000;entryX=0.506;entryY=0.212;entryDx=0;entryDy=0;entryPerimeter=0;" edge="1" parent="1" source="6" target="10">
                    <mxGeometry relative="1" as="geometry"/>
                </mxCell>
                <mxCell id="6" value="display message&lt;br&gt;enter the width of the rectangle" style="strokeWidth=2;html=1;shape=mxgraph.flowchart.display;whiteSpace=wrap;fillColor=#d0cee2;strokeColor=#56517e;fontColor=#000000;" vertex="1" parent="1">
                    <mxGeometry x="210" y="183" width="100" height="60" as="geometry"/>
                </mxCell>
                <mxCell id="15" value="" style="edgeStyle=none;html=1;fontColor=#000000;entryX=0.493;entryY=0.206;entryDx=0;entryDy=0;entryPerimeter=0;" edge="1" parent="1" source="7" target="11">
                    <mxGeometry relative="1" as="geometry"/>
                </mxCell>
                <mxCell id="7" value="display message&lt;br&gt;enter the height of the rectangle" style="strokeWidth=2;html=1;shape=mxgraph.flowchart.display;whiteSpace=wrap;fillColor=#d0cee2;strokeColor=#56517e;fontColor=#000000;" vertex="1" parent="1">
                    <mxGeometry x="210" y="369" width="100" height="60" as="geometry"/>
                </mxCell>
                <mxCell id="18" value="" style="edgeStyle=none;html=1;fontColor=#000000;" edge="1" parent="1" source="8" target="5">
                    <mxGeometry relative="1" as="geometry"/>
                </mxCell>
                <mxCell id="8" value="display message&lt;br&gt;the area is : area" style="strokeWidth=2;html=1;shape=mxgraph.flowchart.display;whiteSpace=wrap;fillColor=#d0cee2;strokeColor=#56517e;fontColor=#000000;" vertex="1" parent="1">
                    <mxGeometry x="210" y="647" width="100" height="60" as="geometry"/>
                </mxCell>
                <mxCell id="17" value="" style="edgeStyle=none;html=1;fontColor=#000000;" edge="1" parent="1" source="9" target="8">
                    <mxGeometry relative="1" as="geometry"/>
                </mxCell>
                <mxCell id="9" value="area = width * height" style="rounded=1;whiteSpace=wrap;html=1;fillColor=#fad9d5;strokeColor=#ae4132;fontColor=#000000;" vertex="1" parent="1">
                    <mxGeometry x="200" y="554" width="120" height="60" as="geometry"/>
                </mxCell>
                <mxCell id="14" value="" style="edgeStyle=none;html=1;fontColor=#000000;" edge="1" parent="1" source="10" target="7">
                    <mxGeometry relative="1" as="geometry"/>
                </mxCell>
                <mxCell id="10" value="enter&lt;br&gt;width" style="shape=manualInput;whiteSpace=wrap;html=1;rounded=1;arcSize=17;size=27;fillColor=#b1ddf0;strokeColor=#10739e;fontColor=#000000;" vertex="1" parent="1">
                    <mxGeometry x="220" y="276" width="80" height="60" as="geometry"/>
                </mxCell>
                <mxCell id="16" value="" style="edgeStyle=none;html=1;fontColor=#000000;" edge="1" parent="1" source="11" target="9">
                    <mxGeometry relative="1" as="geometry"/>
                </mxCell>
                <mxCell id="11" value="enter&lt;br&gt;height" style="shape=manualInput;whiteSpace=wrap;html=1;rounded=1;arcSize=17;size=27;fillColor=#b1ddf0;strokeColor=#10739e;fontColor=#000000;" vertex="1" parent="1">
                    <mxGeometry x="220" y="461" width="80" height="60" as="geometry"/>
                </mxCell>
            </root>
        </mxGraphModel>
    </diagram>
</mxfile>